<?xml version="1.0" standalone="no"?>
<!DOCTYPE svg PUBLIC "-//W3C//DTD SVG 20010904//EN"
 "http://www.w3.org/TR/2001/REC-SVG-20010904/DTD/svg10.dtd">
<svg version="1.0" xmlns="http://www.w3.org/2000/svg"
 width="240.000000pt" height="240.000000pt" viewBox="0 0 240.000000 240.000000"
 preserveAspectRatio="xMidYMid meet">
<metadata>
Created by potrace 1.11, written by Peter Selinger 2001-2013
</metadata>
<g transform="translate(0.000000,240.000000) scale(0.100000,-0.100000)"
fill="#000000" stroke="none">
<path d="M1395 2184 c-204 -45 -343 -130 -451 -275 -85 -116 -126 -239 -130
-394 -4 -136 17 -222 81 -343 l45 -84 -61 -61 c-55 -55 -65 -61 -96 -58 -34 3
-45 -7 -304 -266 -288 -288 -288 -288 -255 -352 8 -15 42 -53 76 -84 102 -95
87 -103 387 196 140 138 261 264 269 279 8 15 14 40 14 55 0 21 15 43 58 85
l57 57 100 -49 c129 -64 225 -85 355 -77 179 12 317 75 445 202 96 95 154 198
185 326 39 162 21 312 -57 469 -85 174 -254 311 -445 359 -67 17 -224 26 -273
15z m290 -84 c425 -131 583 -653 301 -995 -100 -122 -228 -197 -380 -224 -395
-71 -760 258 -733 658 28 406 424 680 812 561z m-671 -1089 l29 -30 -57 -57
-57 -58 -31 31 -31 31 54 56 c30 30 57 56 60 56 3 0 18 -13 33 -29z m-161
-159 c31 -32 57 -62 57 -67 0 -13 -502 -515 -515 -515 -13 0 -125 112 -125
125 0 6 14 24 30 40 l30 29 35 -34 35 -34 20 24 20 24 -32 33 -32 33 22 22 22
22 35 -34 35 -34 20 24 20 24 -32 33 -32 33 22 22 22 22 34 -33 34 -33 22 22
22 22 -33 34 -33 34 22 22 22 22 33 -32 33 -32 24 20 24 20 -34 35 -34 35 22
22 22 22 35 -34 35 -34 20 24 20 24 -32 33 c-31 32 -31 33 -13 53 10 11 23 20
29 20 7 0 37 -26 69 -58z"/>
<path d="M1474 2056 c-10 -26 4 -48 28 -44 17 2 23 10 23 28 0 18 -6 26 -23
28 -13 2 -25 -3 -28 -12z"/>
<path d="M1334 2035 c-4 -9 0 -23 8 -31 20 -20 50 -7 46 20 -4 26 -45 35 -54
11z"/>
<path d="M1617 2044 c-12 -13 -8 -42 8 -48 25 -9 46 5 43 28 -3 21 -37 34 -51
20z"/>
<path d="M1205 1980 c-8 -26 1 -40 26 -40 25 0 35 25 19 45 -17 21 -37 19 -45
-5z"/>
<path d="M1745 1980 c-8 -26 1 -40 26 -40 25 0 35 25 19 45 -17 21 -37 19 -45
-5z"/>
<path d="M1097 1903 c-13 -12 -7 -41 10 -47 21 -9 46 16 37 37 -6 17 -35 23
-47 10z"/>
<path d="M1856 1894 c-4 -10 -1 -24 7 -31 19 -19 49 -5 45 21 -4 27 -43 34
-52 10z"/>
<path d="M1005 1779 c-5 -14 -2 -25 6 -30 24 -15 44 -5 44 21 0 34 -40 41 -50
9z"/>
<path d="M1944 1785 c-9 -23 3 -45 25 -45 23 0 35 28 20 46 -15 18 -38 18 -45
-1z"/>
<path d="M954 1655 c-8 -21 2 -45 19 -45 8 0 20 7 27 15 10 12 10 18 0 30 -7
8 -19 15 -27 15 -7 0 -16 -7 -19 -15z"/>
<path d="M2000 1655 c-11 -13 -11 -19 3 -32 21 -21 49 -9 45 19 -4 28 -30 35
-48 13z"/>
<path d="M941 1521 c-21 -14 -4 -53 22 -49 16 2 22 10 22 28 0 26 -20 36 -44
21z"/>
<path d="M2022 1521 c-23 -14 -10 -46 18 -46 20 0 25 5 25 25 0 26 -20 36 -43
21z"/>
<path d="M954 1375 c-8 -21 2 -45 19 -45 21 0 38 25 31 44 -8 20 -43 21 -50 1z"/>
<path d="M1996 1374 c-9 -22 17 -49 39 -40 10 3 15 15 13 28 -4 29 -42 37 -52
12z"/>
<path d="M1010 1245 c-11 -13 -11 -19 3 -32 21 -21 49 -9 45 19 -4 28 -30 35
-48 13z"/>
<path d="M1944 1245 c-8 -21 2 -45 19 -45 8 0 20 7 27 15 10 12 10 18 0 30 -7
8 -19 15 -27 15 -7 0 -16 -7 -19 -15z"/>
<path d="M1102 1141 c-20 -12 -10 -46 14 -49 25 -4 40 24 23 44 -13 16 -19 17
-37 5z"/>
<path d="M1861 1136 c-17 -20 -2 -48 23 -44 24 3 34 37 14 49 -18 12 -24 11
-37 -5z"/>
<path d="M1203 1044 c-6 -16 19 -44 38 -44 11 0 21 38 14 50 -10 16 -45 12
-52 -6z"/>
<path d="M1743 1044 c-3 -8 2 -23 11 -32 15 -15 17 -15 32 0 21 21 11 48 -16
48 -11 0 -23 -7 -27 -16z"/>
<path d="M1340 995 c-17 -20 -5 -45 20 -45 11 0 23 7 26 15 6 15 -11 45 -26
45 -4 0 -13 -7 -20 -15z"/>
<path d="M1622 1001 c-19 -12 -11 -45 12 -49 25 -5 39 12 31 37 -7 22 -21 26
-43 12z"/>
<path d="M1475 969 c-8 -25 6 -42 31 -37 23 4 31 37 12 49 -22 14 -36 10 -43
-12z"/>
</g>
</svg>
